<?xml version="1.0" encoding="utf-8"?>
<!-- Generator: Adobe Illustrator 19.0.0, SVG Export Plug-In . SVG Version: 6.00 Build 0)  -->
<svg version="1.1" id="Layer_1" xmlns="http://www.w3.org/2000/svg" xmlns:xlink="http://www.w3.org/1999/xlink" x="0px" y="0px"
	 viewBox="0 0 50 50" style="enable-background:new 0 0 50 50;" xml:space="preserve">
<style type="text/css">
	.st0{clip-path:url(#SVGID_2_);fill:url(#SVGID_3_);}
</style>
<g>
	<g>
		<defs>
			<rect id="SVGID_1_" x="2" y="4" width="45.8" height="42"/>
		</defs>
		<clipPath id="SVGID_2_">
			<use xlink:href="#SVGID_1_"  style="overflow:visible;"/>
		</clipPath>
		<linearGradient id="SVGID_3_" gradientUnits="userSpaceOnUse" x1="8.0443" y1="24.9883" x2="41.0434" y2="24.9883">
			<stop  offset="0" style="stop-color:#ED1E68"/>
			<stop  offset="1" style="stop-color:#662F90"/>
		</linearGradient>
		<path class="st0" d="M35.8,32.4c-0.4-0.5-1-0.9-1.6-1c-0.7-0.1-1.5,0-2,0.5l-3.6,2.6l-0.8-0.6c-1.7-1.3-4-3.2-6.2-6.3
			c-2.2-3.1-3.2-5.9-3.9-7.9l-0.3-0.9l3.6-2.6c1.2-0.9,1.5-2.5,0.7-3.7l-4.8-6.7c-0.4-0.5-1-0.9-1.6-1c-0.7-0.1-1.5,0-2,0.5
			l-1.7,1.2l-0.2,0.2c-0.6,0.6-1.2,1.3-1.7,2c-0.4,0.7-0.7,1.5-1,2.2c-1.8,6,0.1,12.2,6.6,21.2c7.6,10.7,15.1,12.7,17.3,13
			c0.4,0.1,0.6,0.1,0.6,0.1c0.8,0,1.6,0,2.4-0.2c0.9-0.2,1.7-0.5,2.5-0.9l0.4-0.2l1.5-1.1c1.2-0.9,1.5-2.5,0.7-3.6L35.8,32.4z
			 M35.8,32.4"/>
	</g>
</g>
</svg>
