<?xml version="1.0" encoding="utf-8"?>
<!-- Generator: Adobe Illustrator 19.0.0, SVG Export Plug-In . SVG Version: 6.00 Build 0)  -->
<svg version="1.1" id="Layer_1" xmlns="http://www.w3.org/2000/svg" xmlns:xlink="http://www.w3.org/1999/xlink" x="0px" y="0px"
	 viewBox="0 0 1080 1080" style="enable-background:new 0 0 1080 1080;" xml:space="preserve">
<style type="text/css">
	.st0{fill:#E0325B;}
	.st1{fill:#FFFFFF;}
	.st2{font-family:'MyriadPro-Regular';}
	.st3{font-size:34.191px;}
	.st4{letter-spacing:5;}
	.st5{fill:#FFFFFF;stroke:#FFFFFF;stroke-miterlimit:10;}
	.st6{font-size:71.8368px;}
	.st7{letter-spacing:9;}
</style>
<rect id="XMLID_18_" x="2.3" y="0" class="st0" width="1080" height="1080"/>
<g id="XMLID_1_">
	<g id="XMLID_36_">
		<g id="XMLID_37_">
			<g id="XMLID_123_">
				<g id="XMLID_124_">
					<g id="XMLID_125_">
						<path id="XMLID_97_" class="st1" d="M543,940L255,714.5l-0.1-2.3l-37.6-402.4v-24h651.5v23.8L831,714.5l-1.9,1.3L543,940z
							 M263.9,709.6L543,928.8l279.1-219.2l37.5-400.2l0-14.4H226.4v14.6L263.9,709.6z"/>
					</g>
				</g>
			</g>
			<g id="XMLID_7_">
				<g id="XMLID_8_">
					<g id="XMLID_9_">
						<path id="XMLID_91_" class="st1" d="M542.2,912.7L275.4,703.1l-0.1-2.1l-34.9-374.2v-22.3h603.6v22.1l-34.9,376.5l-1.7,1.2
							L542.2,912.7z M283.7,698.5l258.5,203.8l258.6-203.8l34.8-372.1l0-13.4H249v13.5L283.7,698.5z"/>
					</g>
				</g>
			</g>
			<g id="XMLID_38_">
				<g id="XMLID_5_">
					<polygon id="XMLID_81_" class="st1" points="450.2,763.8 454.5,777.1 468.5,777.1 457.2,785.4 461.5,798.7 450.2,790.5 
						438.9,798.7 443.2,785.4 431.9,777.1 445.9,777.1 					"/>
				</g>
				<g id="XMLID_6_">
					<polygon id="XMLID_78_" class="st1" points="496.6,763.8 500.9,777.1 514.9,777.1 503.6,785.4 507.9,798.7 496.6,790.5 
						485.3,798.7 489.6,785.4 478.3,777.1 492.3,777.1 					"/>
				</g>
				<g id="XMLID_11_">
					<polygon id="XMLID_75_" class="st1" points="543,763.8 547.3,777.1 561.3,777.1 550,785.4 554.3,798.7 543,790.5 531.7,798.7 
						536,785.4 524.7,777.1 538.7,777.1 					"/>
				</g>
				<g id="XMLID_12_">
					<polygon id="XMLID_72_" class="st1" points="589.4,763.8 593.7,777.1 607.7,777.1 596.4,785.4 600.7,798.7 589.4,790.5 
						578.1,798.7 582.4,785.4 571.1,777.1 585.1,777.1 					"/>
				</g>
				<g id="XMLID_14_">
					<polygon id="XMLID_70_" class="st1" points="635.8,763.8 640.1,777.1 654.1,777.1 642.8,785.4 647.1,798.7 635.8,790.5 
						624.5,798.7 628.8,785.4 617.5,777.1 631.5,777.1 					"/>
				</g>
			</g>
		</g>
	</g>
	<g id="XMLID_39_">
		<path id="XMLID_95_" class="st1" d="M676.5,590.1c-11.3-13.1-67.6-11.3-77.6-11.3c-9.9,0-10.4-4.1-10.4-4.1
			c-16.3-35.3-6.3-62.4-6.3-62.4s36.6,5,53.8,2.3c0,0,8.6-1.8,1.8-18.5c0,0-1.8-4.1-6.8-8.6c-5-4.5-4.7-10.9-10.2-17.7
			c-2.9-3.5-7.5-9.5-8.8-14c-1.4-4.5-3.6-20.8-29.4-25.8c0,0-22.6-5.9-24.4-14c0,0-0.9-5-0.5-7.7c0,0,3.8-3.4,4.5-13.1
			c0,0,4.3,2.5,6.1-9.3c1.8-11.8-2.3-7.5-2.3-7.5s4.5-14.5-0.9-24.4c-5.4-9.9-14.9-13.6-23.5-13.3c0,0-1.7,0.2-2.1,0.2
			c-7.2,1-14.5,4.9-18.9,13.1c-5.4,9.9-0.9,24.4-0.9,24.4s-4.1-4.3-2.3,7.5c1.8,11.8,6.1,9.3,6.1,9.3c0.7,9.7,4.5,13.1,4.5,13.1
			c0.5,2.7-0.5,7.7-0.5,7.7c-1.8,8.1-24.4,14-24.4,14c-25.8,5-28,21.2-29.4,25.8c-1.4,4.5-6,10.5-8.8,14
			c-5.5,6.7-5.2,13.1-10.2,17.7c-5,4.5-6.8,8.6-6.8,8.6c-6.8,16.7,1.8,18.5,1.8,18.5c17.2,2.7,53.8-2.3,53.8-2.3s9.9,27.2-6.3,62.4
			c0,0-0.5,4.1-10.4,4.1c-9.9,0-66.3-1.8-77.6,11.3c-11.3,13.1-12.2,28-1.8,34.4c10.4,6.3,82.5,2.3,134.1,0h2.5
			c51.5,2.3,123.7,6.3,134.1,0C688.7,618.2,687.8,603.3,676.5,590.1z M591.4,471.6c0,0,7,10.8,13.6,17c0,0-5.7,3.6-16.7,3.2
			c0,0-0.2-4.7-2.5-10L591.4,471.6z M498.4,491.8c-11.1,0.5-16.7-3.2-16.7-3.2c6.6-6.1,13.6-17,13.6-17l5.7,10.1
			C498.8,486.1,498.4,491.8,498.4,491.8z"/>
	</g>
	<g id="XMLID_43_">
		<g id="XMLID_51_">
			<g id="XMLID_80_">
				<g id="XMLID_89_">
					<path id="XMLID_68_" class="st1" d="M655.1,288.6V178.9c0-6.7-5.5-12.2-12.2-12.2h-4.1c-6.7,0-12.2,5.5-12.2,12.2v109.7H655.1z
						"/>
				</g>
				<g id="XMLID_86_">
					<path id="XMLID_66_" class="st1" d="M682,288.6V197c0-5.4-4.4-9.8-9.8-9.8h-3.3c-5.4,0-9.8,4.4-9.8,9.8v91.6H682z"/>
				</g>
				<g id="XMLID_83_">
					<path id="XMLID_63_" class="st1" d="M704.3,288.6v-77.2c0-4.3-3.5-7.8-7.8-7.8h-2.6c-4.3,0-7.8,3.5-7.8,7.8v77.2H704.3z"/>
				</g>
			</g>
			<g id="XMLID_53_">
				<g id="XMLID_77_">
					<path id="XMLID_61_" class="st1" d="M462.7,288.6V178.9c0-6.7-5.5-12.2-12.2-12.2h-4.1c-6.7,0-12.2,5.5-12.2,12.2v109.7H462.7z
						"/>
				</g>
				<g id="XMLID_73_">
					<path id="XMLID_59_" class="st1" d="M430.1,288.6V197c0-5.4-4.4-9.8-9.8-9.8h-3.3c-5.4,0-9.8,4.4-9.8,9.8v91.6H430.1z"/>
				</g>
				<g id="XMLID_64_">
					<path id="XMLID_57_" class="st1" d="M403.2,288.6v-77.2c0-4.3-3.5-7.8-7.8-7.8h-2.6c-4.3,0-7.8,3.5-7.8,7.8v77.2H403.2z"/>
				</g>
			</g>
		</g>
		<g id="XMLID_49_">
			<rect id="XMLID_54_" x="467.5" y="256" class="st1" width="154.2" height="27.1"/>
		</g>
		<g id="XMLID_47_">
			<rect id="XMLID_48_" x="366.7" y="256" class="st1" width="14.8" height="27.1"/>
		</g>
		<g id="XMLID_46_">
			<rect id="XMLID_44_" x="706.7" y="256" class="st1" width="14.8" height="27.1"/>
		</g>
	</g>
	<g id="XMLID_2_">
		<g id="XMLID_20_">
			<text id="XMLID_79_" transform="matrix(1 0 0 1 418.7512 705.8438)" class="st1 st2 st3 st4">MIND &amp; BODY</text>
		</g>
		<g id="XMLID_3_">
			<line id="XMLID_17_" class="st5" x1="680.8" y1="695.6" x2="720.2" y2="695.6"/>
			<line id="XMLID_4_" class="st5" x1="365.8" y1="695.6" x2="405.2" y2="695.6"/>
		</g>
	</g>
	<text id="XMLID_15_" transform="matrix(1 0 0 1 317.3748 449.7628)" class="st1 st2 st6 st7">FIT</text>
	<text id="XMLID_16_" transform="matrix(1 0 0 1 657.7253 449.7627)" class="st1 st2 st6 st7">PRO</text>
</g>
</svg>
