<?xml version="1.0" encoding="utf-8"?>
<!-- Generator: Adobe Illustrator 19.0.0, SVG Export Plug-In . SVG Version: 6.00 Build 0)  -->
<svg version="1.1" id="Layer_1" xmlns="http://www.w3.org/2000/svg" xmlns:xlink="http://www.w3.org/1999/xlink" x="0px" y="0px"
	 viewBox="0 0 50 50" style="enable-background:new 0 0 50 50;" xml:space="preserve">
<style type="text/css">
	.st0{fill:#FFFFFF;}
	.st1{font-family:'MyriadPro-Regular';}
	.st2{font-size:2.031px;}
	.st3{fill:#FFFFFF;stroke:#FFFFFF;stroke-miterlimit:10;}
	.st4{font-size:4.2671px;}
</style>
<g id="XMLID_1_">
	<g id="XMLID_36_">
		<g id="XMLID_37_">
			<g id="XMLID_123_">
				<g id="XMLID_124_">
					<g id="XMLID_125_">
						<path id="XMLID_145_" class="st0" d="M24.8,47.9L7.7,34.5l0-0.1L5.5,10.5V9h38.7v1.4L42,34.5l-0.1,0.1L24.8,47.9z M8.3,34.2
							l16.6,13l16.6-13l2.2-23.8l0-0.9H6v0.9L8.3,34.2z"/>
					</g>
				</g>
			</g>
			<g id="XMLID_7_">
				<g id="XMLID_8_">
					<g id="XMLID_9_">
						<path id="XMLID_148_" class="st0" d="M24.8,46.3L8.9,33.8l0-0.1L6.9,11.5v-1.3h35.9v1.3l-2.1,22.4l-0.1,0.1L24.8,46.3z
							 M9.4,33.6l15.4,12.1l15.4-12.1l2.1-22.1l0-0.8H7.4v0.8L9.4,33.6z"/>
					</g>
				</g>
			</g>
			<g id="XMLID_38_">
				<g id="XMLID_5_">
					<polygon id="XMLID_91_" class="st0" points="19.3,37.4 19.6,38.2 20.4,38.2 19.7,38.7 20,39.5 19.3,39 18.7,39.5 18.9,38.7 
						18.2,38.2 19.1,38.2 					"/>
				</g>
				<g id="XMLID_6_">
					<polygon id="XMLID_85_" class="st0" points="22.1,37.4 22.3,38.2 23.2,38.2 22.5,38.7 22.8,39.5 22.1,39 21.4,39.5 21.7,38.7 
						21,38.2 21.8,38.2 					"/>
				</g>
				<g id="XMLID_11_">
					<polygon id="XMLID_82_" class="st0" points="24.8,37.4 25.1,38.2 25.9,38.2 25.3,38.7 25.5,39.5 24.8,39 24.2,39.5 24.4,38.7 
						23.8,38.2 24.6,38.2 					"/>
				</g>
				<g id="XMLID_12_">
					<polygon id="XMLID_74_" class="st0" points="27.6,37.4 27.9,38.2 28.7,38.2 28,38.7 28.3,39.5 27.6,39 26.9,39.5 27.2,38.7 
						26.5,38.2 27.3,38.2 					"/>
				</g>
				<g id="XMLID_14_">
					<polygon id="XMLID_69_" class="st0" points="30.4,37.4 30.6,38.2 31.4,38.2 30.8,38.7 31,39.5 30.4,39 29.7,39.5 29.9,38.7 
						29.3,38.2 30.1,38.2 					"/>
				</g>
			</g>
		</g>
	</g>
	<g id="XMLID_39_">
		<path id="XMLID_157_" class="st0" d="M32.8,27.1c-0.7-0.8-4-0.7-4.6-0.7s-0.6-0.2-0.6-0.2c-1-2.1-0.4-3.7-0.4-3.7s2.2,0.3,3.2,0.1
			c0,0,0.5-0.1,0.1-1.1c0,0-0.1-0.2-0.4-0.5c-0.3-0.3-0.3-0.6-0.6-1c-0.2-0.2-0.4-0.6-0.5-0.8c-0.1-0.3-0.2-1.2-1.7-1.5
			c0,0-1.3-0.3-1.5-0.8c0,0-0.1-0.3,0-0.5c0,0,0.2-0.2,0.3-0.8c0,0,0.3,0.1,0.4-0.6c0.1-0.7-0.1-0.4-0.1-0.4s0.3-0.9-0.1-1.5
			c-0.3-0.6-0.9-0.8-1.4-0.8c0,0-0.1,0-0.1,0c-0.4,0.1-0.9,0.3-1.1,0.8c-0.3,0.6-0.1,1.5-0.1,1.5s-0.2-0.3-0.1,0.4
			c0.1,0.7,0.4,0.6,0.4,0.6c0,0.6,0.3,0.8,0.3,0.8c0,0.2,0,0.5,0,0.5c-0.1,0.5-1.5,0.8-1.5,0.8c-1.5,0.3-1.7,1.3-1.7,1.5
			c-0.1,0.3-0.4,0.6-0.5,0.8c-0.3,0.4-0.3,0.8-0.6,1c-0.3,0.3-0.4,0.5-0.4,0.5c-0.4,1,0.1,1.1,0.1,1.1c1,0.2,3.2-0.1,3.2-0.1
			s0.6,1.6-0.4,3.7c0,0,0,0.2-0.6,0.2s-3.9-0.1-4.6,0.7c-0.7,0.8-0.7,1.7-0.1,2c0.6,0.4,4.9,0.1,8,0h0.1c3.1,0.1,7.3,0.4,8,0
			C33.5,28.8,33.4,27.9,32.8,27.1z M27.7,20.1c0,0,0.4,0.6,0.8,1c0,0-0.3,0.2-1,0.2c0,0,0-0.3-0.1-0.6L27.7,20.1z M22.2,21.3
			c-0.7,0-1-0.2-1-0.2c0.4-0.4,0.8-1,0.8-1l0.3,0.6C22.2,20.9,22.2,21.3,22.2,21.3z"/>
	</g>
	<g id="XMLID_43_">
		<g id="XMLID_51_">
			<g id="XMLID_80_">
				<g id="XMLID_89_">
					<path id="XMLID_67_" class="st0" d="M31.5,9.2V2.7c0-0.4-0.3-0.7-0.7-0.7h-0.2c-0.4,0-0.7,0.3-0.7,0.7v6.5H31.5z"/>
				</g>
				<g id="XMLID_86_">
					<path id="XMLID_65_" class="st0" d="M33.1,9.2V3.8c0-0.3-0.3-0.6-0.6-0.6h-0.2c-0.3,0-0.6,0.3-0.6,0.6v5.4H33.1z"/>
				</g>
				<g id="XMLID_83_">
					<path id="XMLID_62_" class="st0" d="M34.4,9.2V4.6c0-0.3-0.2-0.5-0.5-0.5h-0.2c-0.3,0-0.5,0.2-0.5,0.5v4.6H34.4z"/>
				</g>
			</g>
			<g id="XMLID_53_">
				<g id="XMLID_77_">
					<path id="XMLID_60_" class="st0" d="M20.1,9.2V2.7c0-0.4-0.3-0.7-0.7-0.7h-0.2c-0.4,0-0.7,0.3-0.7,0.7v6.5H20.1z"/>
				</g>
				<g id="XMLID_73_">
					<path id="XMLID_111_" class="st0" d="M18.1,9.2V3.8c0-0.3-0.3-0.6-0.6-0.6h-0.2c-0.3,0-0.6,0.3-0.6,0.6v5.4H18.1z"/>
				</g>
				<g id="XMLID_64_">
					<path id="XMLID_114_" class="st0" d="M16.5,9.2V4.6c0-0.3-0.2-0.5-0.5-0.5h-0.2c-0.3,0-0.5,0.2-0.5,0.5v4.6H16.5z"/>
				</g>
			</g>
		</g>
		<g id="XMLID_49_">
			<rect id="XMLID_116_" x="20.4" y="7.3" class="st0" width="9.2" height="1.6"/>
		</g>
		<g id="XMLID_47_">
			<rect id="XMLID_112_" x="14.4" y="7.3" class="st0" width="0.9" height="1.6"/>
		</g>
		<g id="XMLID_46_">
			<rect id="XMLID_110_" x="34.6" y="7.3" class="st0" width="0.9" height="1.6"/>
		</g>
	</g>
	<g id="XMLID_2_">
		<g id="XMLID_20_">
			<text id="XMLID_129_" transform="matrix(1 0 0 1 17.4663 33.9903)" class="st0 st1 st2">MIND &amp; BODY</text>
		</g>
		<g id="XMLID_3_">
			<line id="XMLID_17_" class="st3" x1="33" y1="33.4" x2="35.4" y2="33.4"/>
			<line id="XMLID_4_" class="st3" x1="14.3" y1="33.4" x2="16.7" y2="33.4"/>
		</g>
	</g>
	<text id="XMLID_15_" transform="matrix(1 0 0 1 11.4444 18.7784)" class="st0 st1 st4">FIT</text>
	<text id="XMLID_16_" transform="matrix(1 0 0 1 31.6612 18.7784)" class="st0 st1 st4">PRO</text>
</g>
</svg>
