<?xml version="1.0" encoding="utf-8"?>
<!-- Generator: Adobe Illustrator 19.0.0, SVG Export Plug-In . SVG Version: 6.00 Build 0)  -->
<svg version="1.1" id="Layer_1" xmlns="http://www.w3.org/2000/svg" xmlns:xlink="http://www.w3.org/1999/xlink" x="0px" y="0px"
	 viewBox="0 0 50 50" style="enable-background:new 0 0 50 50;" xml:space="preserve">
<style type="text/css">
	.st0{fill:url(#SVGID_1_);}
</style>
<linearGradient id="SVGID_1_" gradientUnits="userSpaceOnUse" x1="4.25" y1="24.5614" x2="45.75" y2="24.5614">
	<stop  offset="0" style="stop-color:#F32869"/>
	<stop  offset="1" style="stop-color:#662D91"/>
</linearGradient>
<path class="st0" d="M40.6,9H9.4c-2.9,0-5.2,2.3-5.2,5.2v20.8c0,2.9,2.3,5.2,5.2,5.2h31.1c2.9,0,5.2-2.3,5.2-5.2V14.2
	C45.8,11.3,43.4,9,40.6,9z M32,22.8l11-9.4c0.1,0.2,0.2,0.5,0.2,0.8v20.8c0,0.2-0.1,0.3-0.1,0.5L32,22.8z M40.6,11.6
	c0.2,0,0.3,0.1,0.5,0.1L25,25.4L9,11.7c0.2,0,0.3-0.1,0.5-0.1H40.6z M6.9,35.4c0-0.2-0.1-0.3-0.1-0.5V14.2c0-0.3,0.1-0.5,0.2-0.8
	l11,9.4L6.9,35.4z M9.4,37.5c-0.3,0-0.5-0.1-0.7-0.1l11.2-12.9l4.2,3.6c0.2,0.2,0.5,0.3,0.8,0.3c0.3,0,0.6-0.1,0.8-0.3l4.2-3.6
	l11.2,12.9c-0.2,0.1-0.5,0.1-0.7,0.1H9.4z"/>
</svg>
