<?xml version="1.0" encoding="utf-8"?>
<!-- Generator: Adobe Illustrator 19.0.0, SVG Export Plug-In . SVG Version: 6.00 Build 0)  -->
<svg version="1.1" id="Layer_1" xmlns="http://www.w3.org/2000/svg" xmlns:xlink="http://www.w3.org/1999/xlink" x="0px" y="0px"
	 viewBox="0 0 50 50" style="enable-background:new 0 0 50 50;" xml:space="preserve">
<style type="text/css">
	.st0{fill-rule:evenodd;clip-rule:evenodd;fill:url(#SVGID_1_);}
</style>
<linearGradient id="SVGID_1_" gradientUnits="userSpaceOnUse" x1="13.3099" y1="25.1314" x2="37.0078" y2="25.1314">
	<stop  offset="0" style="stop-color:#F32869"/>
	<stop  offset="1" style="stop-color:#662D91"/>
</linearGradient>
<path class="st0" d="M19.1,25.1c0-3.3,2.7-6.1,6-6.1c3.4,0,6.1,2.7,6.1,6.1c0,3.3-2.7,6.1-6.1,6.1C21.8,31.2,19.1,28.5,19.1,25.1
	L19.1,25.1z M31.4,13.3H18.9c-3.1,0-5.6,2.5-5.6,5.6v12.5c0,3.1,2.5,5.6,5.6,5.6h12.5c3.1,0,5.6-2.5,5.6-5.6V18.9
	C37,15.8,34.5,13.3,31.4,13.3L31.4,13.3z M18.9,14.7h12.5c2.3,0,4.2,1.9,4.2,4.2v12.5c0,2.3-1.9,4.2-4.2,4.2H18.9
	c-2.3,0-4.2-1.9-4.2-4.2V18.9C14.7,16.6,16.6,14.7,18.9,14.7L18.9,14.7z M32.7,16.4c-0.7,0-1.2,0.5-1.2,1.2c0,0.7,0.5,1.2,1.2,1.2
	c0.7,0,1.2-0.5,1.2-1.2C33.9,17,33.3,16.4,32.7,16.4L32.7,16.4z M32.8,25.1c0-4.2-3.4-7.6-7.6-7.6c-4.2,0-7.6,3.4-7.6,7.6
	c0,4.2,3.4,7.6,7.6,7.6C29.4,32.8,32.8,29.4,32.8,25.1L32.8,25.1z"/>
</svg>
