<?xml version="1.0" encoding="utf-8"?>
<!-- Generator: Adobe Illustrator 19.0.0, SVG Export Plug-In . SVG Version: 6.00 Build 0)  -->
<svg version="1.1" id="Layer_1" xmlns="http://www.w3.org/2000/svg" xmlns:xlink="http://www.w3.org/1999/xlink" x="0px" y="0px"
	 viewBox="0 0 50 50" style="enable-background:new 0 0 50 50;" xml:space="preserve">
<style type="text/css">
	.st0{fill:url(#XMLID_3_);}
	.st1{fill:url(#XMLID_8_);}
</style>
<g id="XMLID_2_">
	<linearGradient id="XMLID_3_" gradientUnits="userSpaceOnUse" x1="9.2449" y1="25.2886" x2="22.8101" y2="25.2886">
		<stop  offset="0" style="stop-color:#F32869"/>
		<stop  offset="1" style="stop-color:#662D91"/>
	</linearGradient>
	<path id="XMLID_4_" class="st0" d="M22.8,16.3V28c0,1-0.2,1.9-0.5,2.7c-0.3,0.8-0.8,1.4-1.4,2s-1.3,0.9-2.1,1.2S17,34.3,16,34.3
		c-1,0-1.9-0.1-2.7-0.4s-1.5-0.7-2.1-1.2s-1.1-1.2-1.4-2C9.4,29.9,9.2,29,9.2,28V16.3h3.6V28c0,1.2,0.3,2,0.8,2.5
		c0.6,0.5,1.3,0.8,2.3,0.8c1,0,1.8-0.3,2.3-0.8c0.5-0.5,0.8-1.4,0.8-2.5V16.3H22.8z"/>
	<linearGradient id="XMLID_8_" gradientUnits="userSpaceOnUse" x1="26.51" y1="25.167" x2="40.9626" y2="25.167">
		<stop  offset="0" style="stop-color:#F32869"/>
		<stop  offset="1" style="stop-color:#662D91"/>
	</linearGradient>
	<path id="XMLID_6_" class="st1" d="M40.9,28.1c-0.1,0.9-0.3,1.7-0.6,2.5c-0.3,0.8-0.8,1.4-1.4,1.9c-0.6,0.5-1.3,1-2.2,1.3
		c-0.9,0.3-1.8,0.5-2.9,0.5c-1.1,0-2.2-0.2-3.1-0.6c-0.9-0.4-1.7-1-2.3-1.7s-1.1-1.6-1.4-2.7c-0.3-1-0.5-2.2-0.5-3.5v-1.2
		c0-1.3,0.2-2.5,0.5-3.5c0.3-1.1,0.8-1.9,1.5-2.7s1.4-1.3,2.3-1.7s1.9-0.6,3-0.6c1.1,0,2.1,0.2,2.9,0.5c0.8,0.3,1.6,0.7,2.2,1.3
		c0.6,0.6,1.1,1.2,1.4,2c0.3,0.8,0.5,1.6,0.6,2.5h-3.6c0-0.5-0.1-1-0.3-1.4s-0.3-0.7-0.6-1s-0.6-0.5-1-0.6c-0.4-0.1-0.9-0.2-1.5-0.2
		c-1.2,0-2.2,0.4-2.8,1.3c-0.6,0.9-0.9,2.3-0.9,4.2v1.2c0,0.9,0.1,1.7,0.2,2.4c0.1,0.7,0.3,1.3,0.6,1.7c0.3,0.5,0.7,0.8,1.1,1
		c0.5,0.2,1,0.3,1.7,0.3c0.6,0,1.1-0.1,1.5-0.2c0.4-0.1,0.8-0.3,1-0.6c0.3-0.3,0.5-0.6,0.6-1s0.3-0.9,0.3-1.4H40.9z"/>
</g>
</svg>
