<?xml version="1.0" encoding="iso-8859-1"?>
<!-- Generator: Adobe Illustrator 19.0.0, SVG Export Plug-In . SVG Version: 6.00 Build 0)  -->
<svg version="1.1" id="Layer_1" xmlns="http://www.w3.org/2000/svg" xmlns:xlink="http://www.w3.org/1999/xlink" x="0px" y="0px"
	 viewBox="0 0 200 200" style="enable-background:new 0 0 200 200;" xml:space="preserve">
<g>
	<path style="fill:none;stroke:#454545;stroke-width:2;stroke-miterlimit:10;" d="M91.186,148.208l-9.715,3.948v18.029
		c0,4.303,3.487,7.792,7.791,7.792s7.792-3.489,7.792-7.792v-21.976H91.186z M91.186,148.208"/>
	<path style="fill:none;stroke:#454545;stroke-width:2;stroke-miterlimit:10;" d="M106.33,148.208h-5.913v21.976
		c0,4.303,3.489,7.792,7.792,7.792c4.303,0,7.791-3.489,7.791-7.792v-18.047L106.33,148.208z M106.33,148.208"/>
	<path style="fill:none;stroke:#454545;stroke-width:2;stroke-miterlimit:10;" d="M81.491,70.954
		c2.084-7.607,9.06-13.169,17.251-13.169c8.185,0,15.207,5.567,17.274,13.242l8.383,11.49h17.635l-10.318-9.559l-11.259-16.906
		c-1.718-2.58-4.61-4.129-7.708-4.129H84.759c-3.092,0-5.979,1.543-7.697,4.113l-11.32,16.921l-10.319,9.559h17.635l8.409-11.529
		 M131.715,72.958"/>
	<g>
		<path style="fill:none;stroke:#454545;stroke-width:2;stroke-miterlimit:10;" d="M112.19,33.052
			c0,7.432-6.024,13.457-13.455,13.457c-7.432,0-13.457-6.025-13.457-13.457c0-7.432,6.026-13.456,13.457-13.456
			C106.166,19.596,112.19,25.62,112.19,33.052L112.19,33.052z M112.19,33.052"/>
		<path style="fill:none;stroke:#454545;stroke-width:2;stroke-miterlimit:10;" d="M166.829,87.132h-54.358
			c-3.274,3.915-8.211,6.433-13.727,6.433s-10.453-2.517-13.729-6.433H30.617c-3.166,0-5.73,2.564-5.73,5.728
			c0,3.164,2.564,5.729,5.73,5.729h12.67c0.262,0.778,0.684,1.514,1.279,2.155c2.248,2.427,6.039,2.573,8.467,0.324l2.676-2.478
			h26.526v31.751l-20.832,8.464c-2.411,0.98-4.133,3.147-4.547,5.713c-0.003,0.022-0.009,0.043-0.013,0.066
			c-0.497,3.259-3.666,24.033-4.157,27.247c-0.686,4.498,2.791,8.574,7.373,8.574c3.618,0,6.792-2.641,7.355-6.327l3.518-23.063
			l19.271-7.829h17.107c2.164,0.879,15.845,6.438,19.273,7.829c0.36,2.365,2.983,19.553,3.518,23.063
			c0.616,4.044,4.403,6.864,8.487,6.24c4.067-0.62,6.861-4.419,6.24-8.487l-4.156-27.247c-0.396-2.598-2.13-4.791-4.559-5.779
			c-2.389-0.971-18.684-7.591-20.998-8.531V98.589h26.634l2.676,2.478c2.426,2.25,6.217,2.104,8.467-0.324
			c0.594-0.641,1.017-1.377,1.279-2.155h12.658c3.164,0,5.73-2.566,5.73-5.729C172.56,89.696,169.994,87.132,166.829,87.132
			L166.829,87.132z M166.829,87.132"/>
	</g>
	<path style="fill:none;stroke:#454545;stroke-width:2;stroke-miterlimit:10;" d="M111.609,75.676
		c0,7.105-5.759,12.865-12.864,12.865c-7.105,0-12.865-5.76-12.865-12.865c0-7.105,5.76-12.865,12.865-12.865
		C105.85,62.811,111.609,68.571,111.609,75.676L111.609,75.676z M111.609,75.676"/>
</g>
</svg>
