<?xml version="1.0" encoding="iso-8859-1"?>
<!-- Generator: Adobe Illustrator 19.0.0, SVG Export Plug-In . SVG Version: 6.00 Build 0)  -->
<svg version="1.1" id="Layer_1" xmlns="http://www.w3.org/2000/svg" xmlns:xlink="http://www.w3.org/1999/xlink" x="0px" y="0px"
	 viewBox="0 0 200 200" style="enable-background:new 0 0 200 200;" xml:space="preserve">
<g>
	<g>
		<path style="fill:none;stroke:#454545;stroke-width:2;stroke-miterlimit:10;" d="M116.893,53.366c0,0-0.343,0.061-1.008,0.179
			c-0.332,0.057-0.742,0.131-1.235,0.217c-0.492,0.072-1.052,0.196-1.679,0.37c-0.625,0.164-1.327,0.326-2.087,0.541
			c-0.749,0.259-1.567,0.541-2.45,0.846c-0.867,0.339-1.767,0.783-2.741,1.205c-1.009,0.425-2.084,0.881-3.214,1.359
			c-0.54,0.269-1.195,0.402-1.83,0.597c-0.65,0.183-1.312,0.37-1.992,0.56c-0.681,0.189-1.388,0.24-2.108,0.37
			c-0.722,0.09-1.46,0.271-2.221,0.292c-1.516,0.04-3.12,0.194-4.754-0.004c-0.814-0.078-1.668-0.08-2.501-0.229
			c-0.837-0.137-1.689-0.276-2.552-0.418c-0.873-0.13-1.718-0.381-2.6-0.574c-0.877-0.202-1.767-0.412-2.644-0.686
			c-0.858-0.25-1.727-0.503-2.613-0.761c-0.892-0.24-1.8-0.486-2.718-0.734c-3.368-0.743-7.243-1.106-11.121-0.751
			c-7.791,0.684-15.985,4.091-22.505,10.049c-1.561,1.525-3.172,3.172-4.401,4.951l-1.085,1.491
			c-0.322,0.486-0.541,0.934-0.822,1.399c-0.263,0.467-0.545,0.906-0.801,1.394l-0.722,1.548c-1.876,4.154-3.109,8.767-3.565,13.633
			c-0.974,9.741,0.545,20.191,3.138,30.44c2.64,10.007,7.324,19.762,13.797,28.023c6.498,7.97,14.718,16.311,23.416,15.898
			c1.071,0,2.116-0.213,3.157-0.446c0.509-0.17,1.031-0.278,1.531-0.499l1.866-0.728l1.895-0.726c0.324-0.12,0.618-0.246,0.965-0.36
			l1.1-0.328c1.466-0.418,2.932-0.919,4.39-1.136c5.801-1.216,11.937-0.98,17.438,0.522c1.411,0.299,2.712,0.823,4.034,1.285
			l0.987,0.353l0.492,0.177l0.393,0.153c0.602,0.234,1.22,0.478,1.718,0.64c2.139,0.747,4.352,1.3,6.426,1.447
			c2.101,0.181,4.116-0.092,6.064-0.702c1.937-0.606,3.851-1.672,5.547-2.863c0.484-0.351,0.964-0.701,1.447-1.048l0.722-0.52
			l0.623-0.518c0.827-0.709,1.674-1.317,2.476-2.106c1.645-1.475,3.172-3.046,4.642-4.632c1.466-1.59,2.833-3.237,4.123-4.895
			c0.629-0.842,1.277-1.66,1.87-2.508c0.566-0.822,1.13-1.639,1.685-2.444c1.075-1.79,2.127-3.54,3.155-5.252
			c0.946-1.714,1.672-3.401,2.516-5.034c0.883-1.599,1.445-3.347,2.122-4.969c0.326-0.82,0.646-1.63,0.963-2.427
			c0.32-0.795,0.515-1.62,0.774-2.409c0.49-1.596,0.961-3.14,1.416-4.628c0.347-1.523,0.678-2.991,0.999-4.4
			c0.168-0.707,0.326-1.399,0.48-2.076c0.149-0.68,0.221-1.357,0.33-2.013c0.202-1.317,0.396-2.571,0.578-3.765
			c0.221-1.191,0.288-2.331,0.37-3.404c0.091-1.073,0.175-2.08,0.255-3.018c0.217-1.878,0.17-3.481,0.198-4.781
			c0.046-2.61,0.069-4.001,0.069-4.001s0.143,1.386,0.412,3.982c0.116,1.304,0.341,2.913,0.334,4.813
			c0.023,0.951,0.046,1.975,0.07,3.065c0.019,1.094,0.061,2.259-0.046,3.481c-0.071,1.228-0.147,2.52-0.227,3.877
			c-0.048,0.678-0.059,1.378-0.139,2.083c-0.097,0.705-0.193,1.426-0.29,2.162c-0.206,1.475-0.417,3.012-0.638,4.603
			c-0.347,1.571-0.709,3.2-1.083,4.882c-0.204,0.839-0.343,1.712-0.61,2.56c-0.261,0.854-0.53,1.719-0.801,2.596
			c-0.574,1.752-1.012,3.589-1.822,5.402c-0.749,1.815-1.491,3.751-2.36,5.585c-0.921,1.773-1.864,3.584-2.829,5.434l-0.09,0.174
			c0.033-0.055-0.099,0.174-0.103,0.181l-0.053,0.086l-0.208,0.345l-0.423,0.692c-0.278,0.463-0.56,0.928-0.844,1.397
			c-0.572,0.932-1.207,1.841-1.818,2.779c-1.264,1.845-2.612,3.69-4.087,5.503c-1.466,1.818-3.075,3.58-4.807,5.29
			c-0.82,0.875-1.83,1.702-2.764,2.56l-0.715,0.637l-0.696,0.551l-1.397,1.111c-2.137,1.645-4.441,3.076-7.144,4.081
			c-2.676,0.989-5.656,1.514-8.572,1.393c-1.466-0.023-2.894-0.229-4.308-0.473c-1.405-0.299-2.739-0.625-4.121-1.087
			c-0.724-0.223-1.304-0.438-1.908-0.656l-0.511-0.183l-0.421-0.137l-0.846-0.272c-1.126-0.356-2.247-0.789-3.404-0.986
			c-4.584-1.106-9.316-1.151-13.993-0.053c-1.201,0.2-2.274,0.635-3.395,0.964l-0.839,0.259c-0.292,0.103-0.62,0.252-0.928,0.376
			l-1.876,0.778l-1.92,0.778c-0.749,0.33-1.554,0.541-2.339,0.793c-1.605,0.402-3.256,0.73-4.929,0.772
			c-6.735,0.332-13.166-2.564-17.861-6.3l-1.777-1.466c-0.568-0.469-1.132-0.94-1.668-1.445c-1.092-0.986-2.173-1.983-3.193-3.044
			c-2.089-2.074-4.007-4.306-5.835-6.601c-7.202-9.293-12.32-20.019-15.076-31.224c-1.34-5.503-2.301-11.014-2.774-16.594
			c-0.475-5.564-0.492-11.159,0.206-16.66c0.682-5.49,2.171-10.921,4.689-15.787c0.318-0.606,0.635-1.211,0.951-1.811
			c0.349-0.602,0.759-1.201,1.136-1.796c0.385-0.58,0.776-1.216,1.159-1.737l1.15-1.445c1.681-2.177,3.557-3.929,5.488-5.654
			c3.94-3.315,8.323-5.839,12.825-7.509c4.506-1.666,9.11-2.535,13.54-2.653c4.455-0.099,8.618,0.463,12.589,1.691
			c0.896,0.318,1.782,0.631,2.653,0.942c0.873,0.33,1.735,0.654,2.583,0.974c0.822,0.33,1.641,0.591,2.449,0.843
			c0.812,0.242,1.605,0.549,2.398,0.728c0.797,0.194,1.578,0.385,2.346,0.572c0.77,0.204,1.54,0.257,2.289,0.393
			c1.506,0.295,2.966,0.278,4.375,0.383c0.709,0.05,1.393-0.059,2.07-0.078c0.669-0.057,1.352-0.04,1.977-0.152
			c0.631-0.116,1.243-0.229,1.843-0.337c0.604-0.126,1.195-0.173,1.779-0.394c1.148-0.362,2.236-0.705,3.258-1.029
			c1.058-0.335,2.032-0.684,2.957-0.934c0.936-0.212,1.799-0.408,2.59-0.589c0.801-0.134,1.536-0.221,2.185-0.318
			c0.324-0.044,0.633-0.088,0.919-0.128c0.288-0.017,0.555-0.032,0.802-0.046c0.498-0.027,0.915-0.05,1.254-0.067
			C116.547,53.385,116.893,53.366,116.893,53.366z"/>
		
			<circle style="fill-rule:evenodd;clip-rule:evenodd;fill:none;stroke:#454545;stroke-width:2;stroke-miterlimit:10;" cx="94.621" cy="41.938" r="10.398"/>
		<path style="fill-rule:evenodd;clip-rule:evenodd;fill:#FFFFFF;stroke:#454545;stroke-width:2;stroke-miterlimit:10;" d="
			M135.02,23.949c0,0-40.711,60.379,18.216,85.386c4.607-3.185,4.882-27.783-3.986-35.993c19.5,11.001,12.955,44.294,12.955,44.294
			s38.159-38.419-2.272-66.808C145.778,40.482,135.142,31.911,135.02,23.949z"/>
	</g>
</g>
</svg>
