<?xml version="1.0" encoding="utf-8"?>
<!-- Generator: Adobe Illustrator 19.0.0, SVG Export Plug-In . SVG Version: 6.00 Build 0)  -->
<svg version="1.1" id="Layer_1" xmlns="http://www.w3.org/2000/svg" xmlns:xlink="http://www.w3.org/1999/xlink" x="0px" y="0px"
	 viewBox="0 0 50 50" style="enable-background:new 0 0 50 50;" xml:space="preserve">
<style type="text/css">
	.st0{fill-rule:evenodd;clip-rule:evenodd;fill:url(#SVGID_1_);}
</style>
<linearGradient id="SVGID_1_" gradientUnits="userSpaceOnUse" x1="13.0371" y1="24.9557" x2="37.1421" y2="24.9557">
	<stop  offset="0" style="stop-color:#F32869"/>
	<stop  offset="1" style="stop-color:#662D91"/>
</linearGradient>
<path class="st0" d="M36.9,19.9c0,0-0.2-1.7-1-2.5c-0.9-1-1.9-1-2.4-1.1c-3.4-0.2-8.4-0.2-8.4-0.2h0c0,0-5,0-8.4,0.2
	c-0.5,0.1-1.5,0.1-2.4,1.1c-0.7,0.8-1,2.5-1,2.5S13,22,13,24v0.3v1.7c0,2,0.2,4.1,0.2,4.1s0.2,1.7,1,2.5c0.9,1,2.1,1,2.7,1.1
	c1.9,0.2,8.2,0.3,8.2,0.3s5.1,0,8.4-0.3c0.5-0.1,1.5-0.1,2.4-1.1c0.7-0.8,1-2.5,1-2.5s0.2-2,0.2-4.1v-1.6V24
	C37.1,22,36.9,19.9,36.9,19.9L36.9,19.9z M29.1,24.7l-6.5,3.5v-5.4v-1.6l3,1.6L29.1,24.7z"/>
</svg>
