<?xml version="1.0" encoding="iso-8859-1"?>
<!-- Generator: Adobe Illustrator 19.0.0, SVG Export Plug-In . SVG Version: 6.00 Build 0)  -->
<svg version="1.1" id="Layer_1" xmlns="http://www.w3.org/2000/svg" xmlns:xlink="http://www.w3.org/1999/xlink" x="0px" y="0px"
	 viewBox="0 0 200 200" style="enable-background:new 0 0 200 200;" xml:space="preserve">
<g>
	<path style="fill:none;stroke:#454545;stroke-width:2;stroke-miterlimit:10;" d="M133.65,157.111
		c-1.473-0.228-2.584-0.388-3.488-0.514c-2.778-0.394-3.525-0.499-6.772-1.511c-1.281-0.399-6.287-5.45-6.287-15.336
		c0-12.734,3.023-23.981,4.322-28.225c0.034-0.11,0.118-0.431,0.236-0.865c0.216-0.797,1.792-5.609,1.792-5.609
		c0.855-2.446,1.74-4.978,2.313-7.58l0.032-0.133c0.868-3.766,3.714-17.532,3.917-36.574c0-1.923-1.598-3.594-2.552-4.593
		c-0.175-0.183-0.33-0.342-0.446-0.478c-0.917-1.068-2.127-2.386-3.527-3.913c-0.924-1.005-1.94-2.115-3.034-3.327
		c-1.753-1.938-3.706-3.71-5.595-5.424c-2.323-2.106-4.724-4.283-6.699-6.737c-2.95-3.669-5.676-10.088-5.183-15.263
		c0.075-0.779-0.106-1.453-0.513-1.899c-0.45-0.495-1.154-0.65-1.777-0.405c-0.622-0.246-1.328-0.09-1.776,0.405
		c-0.405,0.446-0.588,1.12-0.513,1.899c0.493,5.175-2.233,11.594-5.183,15.263c-1.975,2.455-4.376,4.632-6.699,6.737
		c-1.888,1.714-3.843,3.487-5.594,5.424c-1.094,1.212-2.11,2.321-3.034,3.327c-1.4,1.527-2.61,2.845-3.529,3.913
		c-0.114,0.136-0.267,0.295-0.444,0.478c-0.954,0.999-2.552,2.67-2.552,4.602c0.202,19.033,3.051,32.799,3.917,36.565l0.033,0.133
		c0.573,2.601,1.46,5.134,2.312,7.58c0,0,1.577,4.813,1.792,5.609c0.116,0.435,0.203,0.756,0.237,0.865
		c1.299,4.244,4.322,15.491,4.322,28.225c0,9.886-5.006,14.938-6.287,15.336c-3.247,1.012-3.994,1.117-6.774,1.511
		c-0.905,0.127-2.014,0.286-3.487,0.514c-15.954,1.697-17.676,9.617-17.676,12.944c0,0.891,0.461,3.79,2.567,6.46
		c1.893,2.401,5.661,5.263,12.875,5.263c1.083,0,2.229-0.065,3.404-0.192c4.801-0.515,9.64-1.29,14.319-2.039
		c1.699-0.273,3.396-0.545,5.095-0.805c2.263-0.347,6.344-0.577,12.127-0.683c0.27-0.006,0.459-0.008,0.549-0.013
		c0.093,0.004,0.28,0.009,0.549,0.013c5.784,0.106,9.865,0.336,12.127,0.683c1.699,0.26,3.396,0.532,5.095,0.805
		c4.679,0.749,9.519,1.524,14.319,2.039c1.176,0.127,2.321,0.192,3.404,0.192c7.214,0,10.984-2.862,12.874-5.263
		c2.106-2.67,2.567-5.569,2.567-6.46C151.327,166.728,149.604,158.808,133.65,157.111L133.65,157.111z M108.827,92.271
		c-0.239,0-0.463-0.051-0.691-0.159c-0.743-0.295-1.695-1.714-1.783-2.263c3.697-2.573,6.195-7.459,6.195-13.066
		c0-8.28-0.874-14.993-12.158-14.993c-11.283,0-12.157,6.714-12.157,14.993c0,5.607,2.498,10.493,6.193,13.066
		c-0.086,0.547-1.059,1.899-1.781,2.263c-0.228,0.108-0.453,0.159-0.691,0.159c-2.375,0-5.353-5.202-6.135-7.271
		c-1.333-3.519-2.995-9.565-3.353-18.389l-0.015-0.341c-0.09-1.858,2.709-6.611,3.079-7.424c0.51-1.12,7.125-11.202,9.089-13.59
		c0.695-0.844,4.218-5.523,5.77-7.588c1.553,2.065,5.075,6.744,5.771,7.588c1.964,2.388,8.577,12.47,9.087,13.59
		c0.373,0.814,3.172,5.566,3.081,7.424l-0.015,0.341c-0.357,8.824-2.02,14.87-3.353,18.389
		C114.18,87.069,111.204,92.271,108.827,92.271L108.827,92.271z M108.827,92.271"/>
</g>
</svg>
